<?xml version="1.0" encoding="UTF-8"?>
<svg id="Layer_1" xmlns="http://www.w3.org/2000/svg" version="1.1" viewBox="0 0 261.9 238.8">
  <!-- Generator: Adobe Illustrator 29.1.0, SVG Export Plug-In . SVG Version: 2.1.0 Build 142)  -->
  <defs>
    <style>
      .st0 {
        fill: #111224;
      }

      .st1 {
        fill: #0d0e23;
      }
    </style>
  </defs>
  <path class="st1" d="M152.3,33.3V0h17v33.3c-2.5-1.3-5.4-2.1-8.5-2.1s-6,.8-8.5,2.1ZM142.3,49.6c0-4.5,1.6-8.6,4.3-11.8V0h-12.2c-2.6,0-4.8,2.1-4.8,4.8v47.2c0,2.6,2.1,4.8,4.8,4.8h9.4c-.9-2.2-1.4-4.6-1.4-7.1ZM174.9,0v37.8c2.7,3.2,4.3,7.3,4.3,11.8s-.5,4.9-1.4,7.1h9.4c2.6,0,4.8-2.1,4.8-4.8V4.8c0-2.6-2.1-4.8-4.8-4.8h-12.2ZM87.1,62.4c.9,2.2,1.4,4.6,1.4,7.1,0,4.5-1.6,8.6-4.3,11.8v4.4c0,5.9,2.3,11.5,6.5,15.7,4.2,4.2,9.7,6.5,15.7,6.5h6.2v-12.2c0-2.6-2.1-4.8-4.8-4.8h-1.4c-2.8,0-5.1-2.3-5.1-5.1v-18.4c0-2.6-2.1-4.8-4.8-4.8h-9.4ZM125.3,109.1c-3.8,0-7.2,1.6-9.5,4.3h-11c-14.5,0-26.3-11.8-26.3-26.3v-1.3c-2.5,1.3-5.4,2.1-8.5,2.1s-6-.8-8.5-2.1v1.3c0,5.8,1.1,11.5,3.4,16.9,2.2,5.2,5.3,9.8,9.3,13.8s8.6,7.1,13.8,9.3c5.2,2.2,10.6,3.3,16.3,3.4h0s.6,0,.6,0h11c2.3,2.6,5.7,4.3,9.5,4.3,7,0,12.8-5.7,12.8-12.8s-5.7-12.8-12.8-12.8ZM55.9,88.9v-7.7c-2.7-3.2-4.3-7.3-4.3-11.8s.5-4.9,1.4-7.1h-9.4c-2.6,0-4.8,2.1-4.8,4.8v21.8c0,8.7,1.7,17.1,5,25,3.2,7.6,7.9,14.5,13.7,20.4,5.9,5.9,12.7,10.5,20.4,13.7,7.9,3.3,16.3,5,25,5h4.8c2.6,0,4.8-2.1,4.8-4.8v-12.2h-9.6c-26,0-47.1-21.1-47.1-47.1ZM96.5,0h-12.2v56.7h12.2c2.6,0,4.8-2.1,4.8-4.8V4.8c0-2.6-2.1-4.8-4.8-4.8ZM38.9,51.9V4.8C38.9,2.1,41,0,43.6,0h12.2v56.7h-12.2c-2.6,0-4.8-2.1-4.8-4.8ZM82.8,69.4c0,7-5.7,12.8-12.8,12.8s-12.8-5.7-12.8-12.8,1.6-7.2,4.3-9.5v-3.2h0V0h17v56.7h0v3.2c2.6,2.3,4.3,5.7,4.3,9.5ZM133.9,105.6c2.3-1.1,4.3-2.5,6.2-4.4,4.2-4.2,6.5-9.7,6.5-15.7v-23.2h-12.2c-2.6,0-4.8,2.1-4.8,4.8v18.4c0,2.8-2.3,5.1-5.1,5.1h-1.4c-2.6,0-4.8,2.1-4.8,4.8v9.4c2.2-.9,4.6-1.4,7.1-1.4s6,.8,8.6,2.1ZM152.3,59.1v3.2h0v24.7c0,9.7-5.2,18.1-13,22.7,2.8,3.2,4.5,7.5,4.5,12.1s-.2,3.4-.7,5c5.1-2.2,9.6-5.3,13.5-9.2,4-4,7.1-8.6,9.3-13.8,2.2-5.2,3.3-10.6,3.4-16.3h0v-.6s0,0,0,0v-24.7h0v-3.2c2.6-2.3,4.3-5.7,4.3-9.5,0-7-5.7-12.8-12.8-12.8s-12.8,5.7-12.8,12.8,1.6,7.2,4.3,9.5ZM180.1,110.3c.6.3,1.1.6,1.7.9,7.1,3.1,11.7,6.8,15.1,9.7,4,3.3,4.7,3.9,8.6,3.9h11.7c0,0,.1,0,.2,0,0,0,0-.9-.5-2.8h0c0,0,0-.1,0-.2,0,0,0,0,0,0,0,0,0,0,0,0,0,0,0,0,0,0,0,0,0,0,0,0,0,0,0,0,0,0-1.5-4.4-3.6-8.3-6.2-11.6-5.7-7.4-12.6-10.7-17.2-12.8-.5-.2-1-.5-1.6-.7v-29.3c0-2.6-2.1-4.8-4.8-4.8h-12.2v36.9c0,2.7.4,8.5,5.2,11.1ZM180.1,145.7c-4.9-4.3-11-9.6-25-9.6h-18c-3.2,2.7-7.3,4.3-11.8,4.3s-4.9-.5-7.1-1.4v9.4c0,2.6,2.1,4.8,4.8,4.8h32.1c7.6,0,9.8,1.9,13.8,5.4,2.8,2.5,6.3,5.5,11.8,7.9,5.9,2.5,13,3.7,21.9,3.7h10.1c2.6,0,4.8-2.1,4.8-4.8v-12.2h-14.8c-14.1,0-18-3.4-22.5-7.4ZM193.4,125.2c-3.8-3.1-8.5-6.9-16.4-9.9-2.8-1.1-5.9-1.9-9.3-2.6-2,3.3-4.4,6.3-7.1,9s-4.8,4.4-7.5,6.1c18.2,1.3,24.2,6.1,29.5,10.5,5.1,4.2,11,9,22.9,9h11.9v-17h-11.9c-5.9,0-7.8-1.6-12.2-5.1Z"/>
  <g>
    <path class="st0" d="M29.7,238.8v-7.9H0v-35.7h9v27.3h13.9v-27.3h9v27.8h6.8v15.9h-9Z"/>
    <path class="st0" d="M57.3,231.9c-3.7,0-6.9-.8-9.7-2.4s-5-3.8-6.5-6.5c-1.6-2.8-2.4-5.9-2.4-9.5s.8-7.3,2.3-10.2,3.7-5.1,6.4-6.7,5.8-2.4,9.4-2.4,6.9.9,9.6,2.6c2.6,1.8,4.6,4.2,5.8,7.4s1.7,7,1.3,11.3h-8.9v-3.3c0-3.6-.6-6.3-1.7-7.9s-3-2.4-5.7-2.4-5.3.9-6.8,2.8c-1.4,1.9-2.2,4.6-2.2,8.2s.7,5.9,2.2,7.7c1.4,1.8,3.6,2.7,6.4,2.7s3.3-.4,4.5-1.2,2.2-1.9,2.9-3.3l9,2.6c-1.3,3.3-3.5,5.8-6.4,7.6s-6.1,2.7-9.5,2.7h0ZM45.4,215.5v-6.7h23.7v6.7s-23.7,0-23.7,0Z"/>
    <path class="st0" d="M74.5,230.9v-7.5c1.3.2,2.3.2,3,0s1.2-.8,1.6-1.6c.4-.8.7-2,.9-3.4.3-1.9.7-4.1.9-6.6.3-2.5.5-5.2.7-8.1s.4-5.6.5-8.4h27v35.7h-9v-27.3h-10.1c0,1.1-.2,2.5-.3,4.1-.1,1.6-.3,3.2-.5,4.9-.2,1.7-.3,3.3-.6,4.9-.2,1.6-.4,2.9-.6,4-.5,2.8-1.3,5-2.3,6.6s-2.5,2.6-4.3,3.1-4.2.4-7-.3h0Z"/>
    <path class="st0" d="M146.7,195.2v35.7h-8.6v-21.8l-16.1,21.8h-7.1v-35.7h8.6v21.1l16.2-21.1h7.1,0Z"/>
    <path class="st0" d="M152.3,230.9v-35.7h9.2v17.2l12.1-17.2h11.1l-12.9,17.9,13.8,17.9h-11.7l-12.4-17.2v17.2h-9.2Z"/>
    <path class="st0" d="M200.7,231.9c-3.6,0-6.8-.8-9.5-2.4s-4.8-3.8-6.3-6.7-2.3-6.1-2.3-9.8.8-7,2.3-9.8c1.5-2.8,3.7-5,6.4-6.6,2.7-1.6,5.8-2.4,9.4-2.4s6.8.8,9.5,2.4,4.9,3.8,6.4,6.7c1.5,2.8,2.3,6.1,2.3,9.8s-.8,7-2.3,9.8c-1.5,2.8-3.7,5.1-6.4,6.6-2.7,1.6-5.9,2.4-9.4,2.4h0ZM200.7,223.5c2.9,0,5-1,6.5-2.9,1.4-1.9,2.1-4.5,2.1-7.5s-.7-5.7-2.2-7.6c-1.4-1.9-3.6-2.8-6.4-2.8s-3.6.4-4.8,1.3-2.2,2.1-2.8,3.7c-.6,1.6-.9,3.4-.9,5.5,0,3.2.7,5.7,2.2,7.6,1.4,1.9,3.6,2.8,6.4,2.8h0Z"/>
    <path class="st0" d="M222.5,230.9v-35.7h7.3l12.4,23.1,12.4-23.1h7.3v35.7h-8.6v-17.8l-9.5,17.8h-3.2l-9.5-17.8v17.8h-8.6Z"/>
  </g>
</svg>